<svg width="24" height="24" viewBox="0 0 24 24" fill="none" xmlns="http://www.w3.org/2000/svg">
<g clip-path="url(#clip0)">
<path d="M11.9817 23.9815C18.599 23.9815 23.9633 18.6172 23.9633 11.9999C23.9633 5.38257 18.599 0.0181885 11.9817 0.0181885C5.36438 0.0181885 0 5.38257 0 11.9999C0 18.6172 5.36438 23.9815 11.9817 23.9815Z" fill="#34ABE0"/>
<path d="M24 12.0001C24 13.7549 23.6229 15.4215 22.9451 16.9234C21.2813 20.6103 17.8057 23.3045 13.6532 23.8708C13.2111 23.9314 12.7612 23.9676 12.3054 23.9783C12.21 23.9808 12.1142 23.9818 12.0183 23.9818C7.62521 23.9818 3.78474 21.6177 1.69894 18.0927C1.50432 17.763 1.32432 17.4237 1.161 17.075C0.955598 16.6353 0.775645 16.1815 0.623535 15.7144L16.3195 0.0184631L16.3826 0.838119L16.498 2.3287L18.8087 2.50818L18.9882 4.81846L21.2985 4.99795L21.478 7.3087L23.0992 7.43437C23.6796 8.84184 24 10.3833 24 12.0001Z" fill="#F9EED7"/>
<path d="M24.0001 12.0001C24.0001 13.7549 23.623 15.4215 22.9452 16.9234L11.1802 5.15784L16.3196 0.0184631L16.3827 0.838119L16.4981 2.3287L18.8089 2.50818L18.9884 4.81846L21.2986 4.99795L21.4781 7.3087L23.0993 7.43437C23.6798 8.84184 24.0001 10.3833 24.0001 12.0001Z" fill="#FF525D"/>
<path d="M16.7221 17.9518L15.474 16.7038C14.6035 15.8332 13.7066 16.0969 12.9681 16.8353C12.2214 17.5826 11.9661 18.4707 12.8366 19.3407L14.0847 20.5892C14.9552 21.4592 15.8433 21.2044 16.59 20.4571C17.3285 19.7188 17.5926 18.8223 16.7221 17.9518ZM15.8257 19.6923C15.5527 19.9652 15.2628 19.9911 14.9728 19.7011L13.7242 18.4531C13.4342 18.1631 13.4607 17.8726 13.7331 17.6002C14.006 17.3278 14.3047 17.2926 14.5948 17.5826L15.8433 18.8311C16.1333 19.1212 16.098 19.4199 15.8257 19.6923ZM13.6279 23.7363L10.384 14.3035C10.3576 14.2248 10.3048 14.1544 10.252 14.1015C9.97077 13.8203 9.5135 13.9079 9.2675 14.1544C9.10907 14.3123 9.03913 14.5236 9.11783 14.7432L12.3054 23.9783C12.7612 23.9676 13.2111 23.9314 13.6532 23.8708C13.6518 23.8238 13.6435 23.7788 13.6279 23.7363ZM9.85635 19.1564L8.6083 17.9078C7.73778 17.0378 6.84139 17.3014 6.10292 18.0399C5.35564 18.7872 5.10087 19.6748 5.97088 20.5453L7.21939 21.7933C8.08939 22.6638 8.97754 22.409 9.72477 21.6618C10.4632 20.9233 10.7269 20.0264 9.85635 19.1564ZM8.95991 20.8969C8.68752 21.1693 8.39703 21.1957 8.10702 20.9057L6.85897 19.6572C6.56849 19.3672 6.59488 19.0771 6.86778 18.8047C7.14017 18.5324 7.439 18.4971 7.72902 18.7871L8.97753 20.0352C9.26755 20.3252 9.2323 20.6245 8.95991 20.8969Z" fill="#FFD15C"/>
</g>
<defs>
<clipPath id="clip0">
<rect width="24" height="24" fill="white"/>
</clipPath>
</defs>
</svg>
