<svg width="0" height="0" class="hidden">
  <symbol viewBox="0 0 24 24" fill="none" xmlns="http://www.w3.org/2000/svg" id="beauty">
    <path d="M20.84 4.61a5.5 5.5 0 0 0-7.78 0L12 5.67l-1.06-1.06a5.501 5.501 0 0 0-7.78 7.78l1.06 1.06L12 21.23l7.78-7.78 1.06-1.06a5.5 5.5 0 0 0 0-7.78z" stroke-width="2" stroke-linecap="round" stroke-linejoin="round"></path>
  </symbol>
  <symbol viewBox="0 0 24 24" fill="none" xmlns="http://www.w3.org/2000/svg" id="auto">
    <path d="M16 3H1v13h15V3zm0 5h4l3 3v5h-7V8zM5.5 21a2.5 2.5 0 1 0 0-5 2.5 2.5 0 0 0 0 5zm13 0a2.5 2.5 0 1 0 0-5 2.5 2.5 0 0 0 0 5z" stroke-width="2" stroke-linecap="round" stroke-linejoin="round"></path>
  </symbol>
  <symbol viewBox="0 0 24 24" fill="none" xmlns="http://www.w3.org/2000/svg" id="catalog">
    <path d="M10 3H3v7h7V3zm11 0h-7v7h7V3zm0 11h-7v7h7v-7zm-11 0H3v7h7v-7z" stroke-width="2" stroke-linecap="round" stroke-linejoin="round"></path>
  </symbol>
  <symbol viewBox="0 0 24 24" fill="none" xmlns="http://www.w3.org/2000/svg" id="emblem">
    <g clip-path="url(#clip0)">
      <path d="M11.982 23.982c6.617 0 11.981-5.365 11.981-11.982C23.963 5.383 18.6.018 11.982.018 5.364.018 0 5.383 0 12c0 6.617 5.364 11.982 11.982 11.982z" fill="#34ABE0"></path>
      <path d="M24 12c0 1.755-.377 3.421-1.055 4.923a11.994 11.994 0 0 1-10.927 7.059A11.976 11.976 0 0 1 .624 15.714L16.32.018l.063.82.115 1.49 2.31.18.18 2.31 2.31.18.18 2.31 1.621.126C23.68 8.842 24 10.384 24 12z" fill="#F9EED7"></path>
      <path d="M24 12c0 1.755-.377 3.421-1.055 4.923L11.18 5.158l5.14-5.14.063.82.115 1.49 2.31.18.18 2.31 2.31.18.18 2.31 1.621.126C23.68 8.842 24 10.384 24 12z" fill="#FF525D"></path>
      <path d="M16.722 17.952l-1.248-1.248c-.87-.87-1.768-.607-2.506.131-.747.748-1.002 1.636-.132 2.506l1.248 1.248c.871.87 1.76.615 2.506-.132.738-.738 1.003-1.635.132-2.505zm-.897 1.74c-.272.273-.562.3-.852.01l-1.249-1.249c-.29-.29-.264-.58.009-.853.273-.272.572-.307.862-.017l1.248 1.248c.29.29.255.589-.018.861zm-2.197 4.044l-3.244-9.433a.543.543 0 0 0-.132-.202c-.281-.28-.739-.193-.985.053-.158.158-.228.37-.15.59l3.188 9.234c.456-.01.906-.047 1.348-.107a.422.422 0 0 0-.025-.135zm-3.772-4.58l-1.248-1.248c-.87-.87-1.767-.607-2.505.132-.747.747-1.002 1.635-.132 2.505l1.248 1.248c.87.87 1.758.616 2.506-.131.738-.739 1.002-1.636.131-2.506zm-.896 1.74c-.273.273-.563.3-.853.01l-1.248-1.249c-.29-.29-.264-.58.009-.852.272-.273.57-.308.86-.018l1.25 1.248c.29.29.254.59-.018.862z"
        fill="#FFD15C"></path>
    </g>
    <defs>
      <clipPath id="clip0">
        <path fill="#fff" d="M0 0h24v24H0z"></path>
      </clipPath>
    </defs>
  </symbol>
  <symbol viewBox="0 0 24 24" fill="none" xmlns="http://www.w3.org/2000/svg" id="enjoy">
    <g clip-path="url(#clip0)">
      <path d="M16 22v-3.87a3.37 3.37 0 0 0-.94-2.61c3.14-.35 6.44-1.54 6.44-7A5.44 5.44 0 0 0 20 4.77 5.07 5.07 0 0 0 19.91 1S18.73.65 16 2.48a13.38 13.38 0 0 0-7 0C6.27.65 5.09 1 5.09 1A5.07 5.07 0 0 0 5 4.77a5.44 5.44 0 0 0-1.5 3.78c0 5.42 3.3 6.61 6.44 7A3.37 3.37 0 0 0 9 18.13V22m0-3c-5 1.5-5-2.5-7-3l7 3z"
        stroke-width="2" stroke-linecap="round" stroke-linejoin="round"></path>
    </g>
    <defs>
      <clipPath id="clip0">
        <path fill="#fff" d="M0 0h24v24H0z"></path>
      </clipPath>
    </defs>
  </symbol>
  <symbol viewBox="0 0 24 24" fill="none" xmlns="http://www.w3.org/2000/svg" id="health">
    <path d="M22 12h-4l-3 9L9 3l-3 9H2" stroke-width="2" stroke-linecap="round" stroke-linejoin="round"></path>
  </symbol>
  <symbol viewBox="0 0 37 11" fill="none" xmlns="http://www.w3.org/2000/svg" id="logo">
    <path d="M5.258 5.002C5.78067 5.09533 6.224 5.37067 6.588 5.828C6.952 6.28533 7.134 6.80333 7.134 7.382C7.134 7.87667 7.00333 8.32467 6.742 8.726C6.49 9.118 6.12133 9.43067 5.636 9.664C5.15067 9.888 4.586 10 3.942 10H0.05V0.269999H3.76C4.42267 0.269999 4.992 0.381999 5.468 0.606C5.944 0.83 6.30333 1.13333 6.546 1.516C6.78867 1.88933 6.91 2.30933 6.91 2.776C6.91 3.336 6.76067 3.80267 6.462 4.176C6.16333 4.54933 5.762 4.82467 5.258 5.002ZM1.646 4.358H3.62C4.14267 4.358 4.54867 4.24133 4.838 4.008C5.13667 3.76533 5.286 3.42 5.286 2.972C5.286 2.53333 5.13667 2.19267 4.838 1.95C4.54867 1.698 4.14267 1.572 3.62 1.572H1.646V4.358ZM3.802 8.698C4.34333 8.698 4.768 8.56733 5.076 8.306C5.384 8.04467 5.538 7.68067 5.538 7.214C5.538 6.738 5.37467 6.36 5.048 6.08C4.72133 5.8 4.28733 5.66 3.746 5.66H1.646V8.698H3.802ZM10.4644 1.558V4.414H13.8244V5.716H10.4644V8.698H14.2444V10H8.86836V0.255999H14.2444V1.558H10.4644ZM15.6782 5.114C15.6782 4.162 15.8975 3.308 16.3362 2.552C16.7842 1.796 17.3862 1.208 18.1422 0.787999C18.9075 0.358666 19.7428 0.143999 20.6482 0.143999C21.6842 0.143999 22.6035 0.400666 23.4062 0.913999C24.2182 1.418 24.8062 2.13667 25.1702 3.07H23.2522C23.0002 2.55667 22.6502 2.174 22.2022 1.922C21.7542 1.67 21.2362 1.544 20.6482 1.544C20.0042 1.544 19.4302 1.68867 18.9262 1.978C18.4222 2.26733 18.0255 2.68267 17.7362 3.224C17.4562 3.76533 17.3162 4.39533 17.3162 5.114C17.3162 5.83267 17.4562 6.46267 17.7362 7.004C18.0255 7.54533 18.4222 7.96533 18.9262 8.264C19.4302 8.55333 20.0042 8.698 20.6482 8.698C21.2362 8.698 21.7542 8.572 22.2022 8.32C22.6502 8.068 23.0002 7.68533 23.2522 7.172H25.1702C24.8062 8.10533 24.2182 8.824 23.4062 9.328C22.6035 9.832 21.6842 10.084 20.6482 10.084C19.7335 10.084 18.8982 9.874 18.1422 9.454C17.3862 9.02467 16.7842 8.432 16.3362 7.676C15.8975 6.92 15.6782 6.066 15.6782 5.114ZM31.4763 10.098C30.5709 10.098 29.7356 9.888 28.9703 9.468C28.2143 9.03867 27.6123 8.446 27.1643 7.69C26.7256 6.92467 26.5063 6.066 26.5063 5.114C26.5063 4.162 26.7256 3.308 27.1643 2.552C27.6123 1.796 28.2143 1.208 28.9703 0.787999C29.7356 0.358666 30.5709 0.143999 31.4763 0.143999C32.3909 0.143999 33.2263 0.358666 33.9823 0.787999C34.7476 1.208 35.3496 1.796 35.7883 2.552C36.2269 3.308 36.4463 4.162 36.4463 5.114C36.4463 6.066 36.2269 6.92467 35.7883 7.69C35.3496 8.446 34.7476 9.03867 33.9823 9.468C33.2263 9.888 32.3909 10.098 31.4763 10.098ZM31.4763 8.712C32.1203 8.712 32.6943 8.56733 33.1983 8.278C33.7023 7.97933 34.0943 7.55933 34.3743 7.018C34.6636 6.46733 34.8083 5.83267 34.8083 5.114C34.8083 4.39533 34.6636 3.76533 34.3743 3.224C34.0943 2.68267 33.7023 2.26733 33.1983 1.978C32.6943 1.68867 32.1203 1.544 31.4763 1.544C30.8323 1.544 30.2583 1.68867 29.7543 1.978C29.2503 2.26733 28.8536 2.68267 28.5643 3.224C28.2843 3.76533 28.1443 4.39533 28.1443 5.114C28.1443 5.83267 28.2843 6.46733 28.5643 7.018C28.8536 7.55933 29.2503 7.97933 29.7543 8.278C30.2583 8.56733 30.8323 8.712 31.4763 8.712Z" fill="#333333"/>
  </symbol>
  <symbol viewBox="0 0 20 20" fill="none" xmlns="http://www.w3.org/2000/svg" id="search">
    <path d="M4.167 9.167a6.667 6.667 0 1 0 13.333 0 6.667 6.667 0 0 0-13.333 0zM2.5 17.5l3.625-3.625" stroke="#D6D6D6" stroke-width="2" stroke-linecap="round" stroke-linejoin="round"></path>
  </symbol>
  <symbol viewBox="0 0 26 20" fill="none" xmlns="http://www.w3.org/2000/svg" id="sidebar-btn--close">
    <rect width="26.198" height="2.015" rx="1.008" transform="matrix(.70532 .7089 -.70532 .7089 4.522 0)" fill="#262626"></rect>
    <rect width="26.198" height="2.015" rx="1.008" transform="matrix(.70532 -.7089 .70532 .7089 3 18.571)" fill="#262626"></rect>
  </symbol>
  <symbol viewBox="0 0 26 20" fill="none" xmlns="http://www.w3.org/2000/svg" id="sidebar-btn--open">
    <rect width="26" height="2" rx="1" fill="#262626"></rect>
    <rect y="18" width="26" height="2" rx="1" fill="#262626"></rect>
    <rect y="9" width="26" height="2" rx="1" fill="#262626"></rect>
  </symbol>
</svg>