<svg width="0" height="0" class="hidden">
  <symbol viewBox="0 0 24 24" fill="none" xmlns="http://www.w3.org/2000/svg" id="beauty">
    <path d="M20.84 4.61a5.5 5.5 0 0 0-7.78 0L12 5.67l-1.06-1.06a5.501 5.501 0 0 0-7.78 7.78l1.06 1.06L12 21.23l7.78-7.78 1.06-1.06a5.5 5.5 0 0 0 0-7.78z" stroke-width="2" stroke-linecap="round" stroke-linejoin="round"></path>
  </symbol>
  <symbol viewBox="0 0 24 24" fill="none" xmlns="http://www.w3.org/2000/svg" id="auto">
    <path d="M16 3H1v13h15V3zm0 5h4l3 3v5h-7V8zM5.5 21a2.5 2.5 0 1 0 0-5 2.5 2.5 0 0 0 0 5zm13 0a2.5 2.5 0 1 0 0-5 2.5 2.5 0 0 0 0 5z" stroke-width="2" stroke-linecap="round" stroke-linejoin="round"></path>
  </symbol>
  <symbol viewBox="0 0 24 24" fill="none" xmlns="http://www.w3.org/2000/svg" id="catalog">
    <path d="M10 3H3v7h7V3zm11 0h-7v7h7V3zm0 11h-7v7h7v-7zm-11 0H3v7h7v-7z" stroke-width="2" stroke-linecap="round" stroke-linejoin="round"></path>
  </symbol>
  <symbol viewBox="0 0 24 24" fill="none" xmlns="http://www.w3.org/2000/svg" id="emblem">
    <g clip-path="url(#clip0)">
      <path d="M11.982 23.982c6.617 0 11.981-5.365 11.981-11.982C23.963 5.383 18.6.018 11.982.018 5.364.018 0 5.383 0 12c0 6.617 5.364 11.982 11.982 11.982z" fill="#34ABE0"></path>
      <path d="M24 12c0 1.755-.377 3.421-1.055 4.923a11.994 11.994 0 0 1-10.927 7.059A11.976 11.976 0 0 1 .624 15.714L16.32.018l.063.82.115 1.49 2.31.18.18 2.31 2.31.18.18 2.31 1.621.126C23.68 8.842 24 10.384 24 12z" fill="#F9EED7"></path>
      <path d="M24 12c0 1.755-.377 3.421-1.055 4.923L11.18 5.158l5.14-5.14.063.82.115 1.49 2.31.18.18 2.31 2.31.18.18 2.31 1.621.126C23.68 8.842 24 10.384 24 12z" fill="#FF525D"></path>
      <path d="M16.722 17.952l-1.248-1.248c-.87-.87-1.768-.607-2.506.131-.747.748-1.002 1.636-.132 2.506l1.248 1.248c.871.87 1.76.615 2.506-.132.738-.738 1.003-1.635.132-2.505zm-.897 1.74c-.272.273-.562.3-.852.01l-1.249-1.249c-.29-.29-.264-.58.009-.853.273-.272.572-.307.862-.017l1.248 1.248c.29.29.255.589-.018.861zm-2.197 4.044l-3.244-9.433a.543.543 0 0 0-.132-.202c-.281-.28-.739-.193-.985.053-.158.158-.228.37-.15.59l3.188 9.234c.456-.01.906-.047 1.348-.107a.422.422 0 0 0-.025-.135zm-3.772-4.58l-1.248-1.248c-.87-.87-1.767-.607-2.505.132-.747.747-1.002 1.635-.132 2.505l1.248 1.248c.87.87 1.758.616 2.506-.131.738-.739 1.002-1.636.131-2.506zm-.896 1.74c-.273.273-.563.3-.853.01l-1.248-1.249c-.29-.29-.264-.58.009-.852.272-.273.57-.308.86-.018l1.25 1.248c.29.29.254.59-.018.862z"
        fill="#FFD15C"></path>
    </g>
    <defs>
      <clipPath id="clip0">
        <path fill="#fff" d="M0 0h24v24H0z"></path>
      </clipPath>
    </defs>
  </symbol>
  <symbol viewBox="0 0 24 24" fill="none" xmlns="http://www.w3.org/2000/svg" id="enjoy">
    <g clip-path="url(#clip0)">
      <path d="M16 22v-3.87a3.37 3.37 0 0 0-.94-2.61c3.14-.35 6.44-1.54 6.44-7A5.44 5.44 0 0 0 20 4.77 5.07 5.07 0 0 0 19.91 1S18.73.65 16 2.48a13.38 13.38 0 0 0-7 0C6.27.65 5.09 1 5.09 1A5.07 5.07 0 0 0 5 4.77a5.44 5.44 0 0 0-1.5 3.78c0 5.42 3.3 6.61 6.44 7A3.37 3.37 0 0 0 9 18.13V22m0-3c-5 1.5-5-2.5-7-3l7 3z"
        stroke-width="2" stroke-linecap="round" stroke-linejoin="round"></path>
    </g>
    <defs>
      <clipPath id="clip0">
        <path fill="#fff" d="M0 0h24v24H0z"></path>
      </clipPath>
    </defs>
  </symbol>
  <symbol viewBox="0 0 24 24" fill="none" xmlns="http://www.w3.org/2000/svg" id="health">
    <path d="M22 12h-4l-3 9L9 3l-3 9H2" stroke-width="2" stroke-linecap="round" stroke-linejoin="round"></path>
  </symbol>
  <symbol viewBox="0 0 67 24" fill="none" xmlns="http://www.w3.org/2000/svg" id="logo">
    <path d="M35.258 13.002c.523.093.966.369 1.33.826.364.457.546.975.546 1.554 0 .495-.13.943-.392 1.344-.252.392-.62.705-1.106.938-.485.224-1.05.336-1.694.336H30.05V8.27h3.71c.663 0 1.232.112 1.708.336.476.224.835.527 1.078.91.243.373.364.793.364 1.26 0 .56-.15 1.027-.448 1.4-.299.373-.7.649-1.204.826zm-3.612-.644h1.974c.523 0 .929-.117 1.218-.35.299-.243.448-.588.448-1.036 0-.439-.15-.78-.448-1.022-.29-.252-.695-.378-1.218-.378h-1.974v2.786zm2.156 4.34c.541 0 .966-.13 1.274-.392.308-.261.462-.625.462-1.092 0-.476-.163-.854-.49-1.134-.327-.28-.76-.42-1.302-.42h-2.1v3.038h2.156zm6.662-7.14v2.856h3.36v1.302h-3.36v2.982h3.78V18h-5.376V8.256h5.376v1.302h-3.78zm5.214 3.556c0-.952.22-1.806.658-2.562a4.749 4.749 0 0 1 1.806-1.764c.765-.43 1.6-.644 2.506-.644 1.036 0 1.955.257 2.758.77.812.504 1.4 1.223 1.764 2.156h-1.918c-.252-.513-.602-.896-1.05-1.148-.448-.252-.966-.378-1.554-.378-.644 0-1.218.145-1.722.434-.504.29-.9.705-1.19 1.246-.28.541-.42 1.171-.42 1.89 0 .719.14 1.349.42 1.89.29.541.686.961 1.19 1.26.504.29 1.078.434 1.722.434.588 0 1.106-.126 1.554-.378.448-.252.798-.635 1.05-1.148h1.918c-.364.933-.952 1.652-1.764 2.156-.803.504-1.722.756-2.758.756-.915 0-1.75-.21-2.506-.63a4.854 4.854 0 0 1-1.806-1.778c-.438-.756-.658-1.61-.658-2.562zm15.798 4.984c-.905 0-1.74-.21-2.506-.63a4.854 4.854 0 0 1-1.806-1.778c-.438-.765-.658-1.624-.658-2.576s.22-1.806.658-2.562a4.749 4.749 0 0 1 1.806-1.764c.766-.43 1.6-.644 2.506-.644.915 0 1.75.215 2.506.644a4.622 4.622 0 0 1 1.806 1.764c.439.756.658 1.61.658 2.562 0 .952-.22 1.81-.658 2.576a4.721 4.721 0 0 1-1.806 1.778c-.756.42-1.591.63-2.506.63zm0-1.386c.644 0 1.218-.145 1.722-.434a3.068 3.068 0 0 0 1.176-1.26c.29-.55.434-1.185.434-1.904 0-.719-.144-1.349-.434-1.89a2.976 2.976 0 0 0-1.176-1.246c-.504-.29-1.078-.434-1.722-.434-.644 0-1.218.145-1.722.434-.504.29-.9.705-1.19 1.246-.28.541-.42 1.171-.42 1.89 0 .719.14 1.353.42 1.904.29.541.686.961 1.19 1.26.504.29 1.078.434 1.722.434z"
      fill="#333"></path>
    <g clip-path="url(#clip0)">
      <path d="M11.982 23.982c6.617 0 11.981-5.365 11.981-11.982C23.963 5.383 18.6.018 11.982.018 5.364.018 0 5.383 0 12c0 6.617 5.364 11.982 11.982 11.982z" fill="#34ABE0"></path>
      <path d="M24 12c0 1.755-.377 3.421-1.055 4.923a11.994 11.994 0 0 1-10.927 7.059A11.976 11.976 0 0 1 .624 15.714L16.32.018l.063.82.115 1.49 2.31.18.18 2.31 2.31.18.18 2.31 1.621.126C23.68 8.842 24 10.384 24 12z" fill="#F9EED7"></path>
      <path d="M24 12c0 1.755-.377 3.421-1.055 4.923L11.18 5.158l5.14-5.14.063.82.115 1.49 2.31.18.18 2.31 2.31.18.18 2.31 1.621.126C23.68 8.842 24 10.384 24 12z" fill="#FF525D"></path>
      <path d="M16.722 17.952l-1.248-1.248c-.87-.87-1.767-.607-2.506.131-.747.748-1.002 1.636-.131 2.506l1.248 1.248c.87.87 1.758.615 2.505-.132.738-.738 1.003-1.635.132-2.505zm-.896 1.74c-.273.273-.563.3-.853.01l-1.249-1.249c-.29-.29-.263-.58.01-.853.272-.272.57-.307.86-.017l1.25 1.248c.29.29.254.589-.018.861zm-2.198 4.044l-3.244-9.433a.543.543 0 0 0-.132-.202c-.281-.28-.739-.193-.985.053-.158.158-.228.37-.15.59l3.188 9.234c.456-.01.906-.047 1.348-.107a.425.425 0 0 0-.025-.135zm-3.772-4.58l-1.248-1.248c-.87-.87-1.767-.607-2.505.132-.747.747-1.002 1.635-.132 2.505l1.248 1.248c.87.87 1.759.616 2.506-.131.738-.739 1.002-1.636.131-2.506zm-.896 1.74c-.272.273-.563.3-.853.01l-1.248-1.249c-.29-.29-.264-.58.009-.852.272-.273.571-.308.861-.018l1.249 1.248c.29.29.254.59-.018.862z"
        fill="#FFD15C"></path>
    </g>
  </symbol>
  <symbol viewBox="0 0 20 20" fill="none" xmlns="http://www.w3.org/2000/svg" id="search">
    <path d="M4.167 9.167a6.667 6.667 0 1 0 13.333 0 6.667 6.667 0 0 0-13.333 0zM2.5 17.5l3.625-3.625" stroke="#D6D6D6" stroke-width="2" stroke-linecap="round" stroke-linejoin="round"></path>
  </symbol>
  <symbol viewBox="0 0 26 20" fill="none" xmlns="http://www.w3.org/2000/svg" id="sidebar-btn--close">
    <rect width="26.198" height="2.015" rx="1.008" transform="matrix(.70532 .7089 -.70532 .7089 4.522 0)" fill="#262626"></rect>
    <rect width="26.198" height="2.015" rx="1.008" transform="matrix(.70532 -.7089 .70532 .7089 3 18.571)" fill="#262626"></rect>
  </symbol>
  <symbol viewBox="0 0 26 20" fill="none" xmlns="http://www.w3.org/2000/svg" id="sidebar-btn--open">
    <rect width="26" height="2" rx="1" fill="#262626"></rect>
    <rect y="18" width="26" height="2" rx="1" fill="#262626"></rect>
    <rect y="9" width="26" height="2" rx="1" fill="#262626"></rect>
  </symbol>
</svg>